<svg width="18" height="19" viewBox="0 0 18 19" fill="none" xmlns="http://www.w3.org/2000/svg">
<g clip-path="url(#clip0)">
<path d="M10.6872 14.4575C11.6176 14.4575 12.3748 15.2147 12.3748 16.1451C12.3748 17.0755 11.6176 17.8327 10.6872 17.8327C9.75676 17.8327 8.9996 17.0755 8.9996 16.1451C8.9996 15.2147 9.75676 14.4575 10.6872 14.4575ZM10.6872 16.7076C10.9977 16.7076 11.2497 16.4556 11.2497 16.1451C11.2497 15.8346 10.9977 15.5826 10.6872 15.5826C10.3767 15.5826 10.1247 15.8346 10.1247 16.1451C10.1247 16.4556 10.3767 16.7076 10.6872 16.7076Z" fill="black"/>
<path d="M3.93693 14.4575C4.86735 14.4575 5.62451 15.2147 5.62451 16.1451C5.62451 17.0755 4.86735 17.8327 3.93693 17.8327C3.00651 17.8327 2.24935 17.0755 2.24935 16.1451C2.24935 15.2147 3.00651 14.4575 3.93693 14.4575ZM3.93693 16.7076C4.24745 16.7076 4.49946 16.4556 4.49946 16.1451C4.49946 15.8346 4.24745 15.5826 3.93693 15.5826C3.62642 15.5826 3.37441 15.8346 3.37441 16.1451C3.37441 16.4556 3.62642 16.7076 3.93693 16.7076Z" fill="black"/>
<path d="M0.130787 3.40952C0.236542 3.28127 0.395176 3.20701 0.561684 3.20701H13.7833L14.2727 1.3743C14.338 1.12792 14.5607 0.956909 14.8161 0.956909H17.4375C17.748 0.956909 18 1.20892 18 1.51944C18 1.82995 17.748 2.08196 17.4375 2.08196H15.2481L12.3556 12.9151C12.2904 13.1615 12.0676 13.3325 11.8122 13.3325H2.81179C2.50127 13.3325 2.24926 13.0805 2.24926 12.77C2.24926 12.4594 2.50127 12.2074 2.81179 12.2074H11.3802L11.7098 10.9721L1.66199 10.5199C1.39985 10.5075 1.18046 10.3162 1.13433 10.0586L0.00928307 3.8708C-0.0210934 3.70654 0.0239086 3.53778 0.130787 3.40952ZM2.15926 9.41618L12.008 9.85945L13.4829 4.33207H1.23559L2.15926 9.41618Z" fill="black"/>
</g>
<defs>
<clipPath id="clip0">
<rect width="18" height="18" fill="white" transform="matrix(-1 0 0 1 18 0.394775)"/>
</clipPath>
</defs>
</svg>
