<svg width="28" height="20" viewBox="0 0 28 20" fill="none" xmlns="http://www.w3.org/2000/svg">
<path d="M22.8915 14.4143C22.2073 14.4143 21.5573 14.6822 21.067 15.1669C20.5767 15.6572 20.303 16.2958 20.303 16.9799C20.303 17.6641 20.571 18.3027 21.067 18.793C21.563 19.2776 22.2073 19.5456 22.8915 19.5456C24.294 19.5456 25.4343 18.3939 25.4343 16.9799C25.4343 15.566 24.294 14.4143 22.8915 14.4143ZM22.8915 18.4053C22.1047 18.4053 21.4433 17.7553 21.4433 16.9799C21.4433 16.2045 22.1047 15.5546 22.8915 15.5546C23.6669 15.5546 24.294 16.1931 24.294 16.9799C24.294 17.7667 23.6669 18.4053 22.8915 18.4053ZM8.96844 14.4143C8.28426 14.4143 7.63429 14.6822 7.14396 15.1669C6.65364 15.6572 6.37996 16.2958 6.37996 16.9799C6.37996 17.6641 6.64793 18.3027 7.14396 18.793C7.63999 19.2776 8.28426 19.5456 8.96844 19.5456C10.371 19.5456 11.5113 18.3939 11.5113 16.9799C11.5113 15.566 10.371 14.4143 8.96844 14.4143ZM8.96844 18.4053C8.18163 18.4053 7.52026 17.7553 7.52026 16.9799C7.52026 16.2045 8.18163 15.5546 8.96844 15.5546C9.74384 15.5546 10.371 16.1931 10.371 16.9799C10.371 17.7667 9.74384 18.4053 8.96844 18.4053ZM5.16555 15.1155H4.01955V13.599C4.01955 13.2854 3.76298 13.0288 3.4494 13.0288C3.13582 13.0288 2.87925 13.2854 2.87925 13.599V15.6857C2.87925 15.9993 3.13582 16.2558 3.4494 16.2558H5.16555C5.47913 16.2558 5.7357 15.9993 5.7357 15.6857C5.7357 15.3721 5.47913 15.1155 5.16555 15.1155ZM8.0562 12.0082C8.0562 11.6947 7.79963 11.4381 7.48605 11.4381H0.570149C0.256567 11.4381 0 11.6947 0 12.0082C0 12.3218 0.256567 12.5784 0.570149 12.5784H7.48605C7.79963 12.5784 8.0562 12.3275 8.0562 12.0082ZM1.72755 9.95L8.64345 9.98991C8.95704 9.98991 9.2136 9.73905 9.2193 9.42547C9.225 9.10618 8.96844 8.84962 8.65486 8.84962L1.73895 8.80971C1.73325 8.80971 1.73325 8.80971 1.73325 8.80971C1.41967 8.80971 1.1631 9.06057 1.1631 9.37415C1.1574 9.69344 1.41397 9.95 1.72755 9.95ZM2.89065 7.36153H9.80656C10.1201 7.36153 10.3767 7.10496 10.3767 6.79138C10.3767 6.4778 10.1201 6.22123 9.80656 6.22123H2.89065C2.57707 6.22123 2.3205 6.4778 2.3205 6.79138C2.3205 7.10496 2.57707 7.36153 2.89065 7.36153ZM27.789 6.59183L23.7068 3.21085C23.6042 3.12533 23.4787 3.07971 23.3419 3.07971H18.5412V1.02718C18.5412 0.713598 18.2847 0.457031 17.9711 0.457031H3.4494C3.13582 0.457031 2.87925 0.713598 2.87925 1.02718V5.20067C2.87925 5.51425 3.13582 5.77082 3.4494 5.77082C3.76298 5.77082 4.01955 5.51425 4.01955 5.20067V1.59733H17.4066V15.1155H12.7314C12.4178 15.1155 12.1613 15.3721 12.1613 15.6857C12.1613 15.9993 12.4178 16.2558 12.7314 16.2558H19.6929C20.0065 16.2558 20.2631 15.9993 20.2631 15.6857C20.2631 15.3721 20.0065 15.1155 19.6929 15.1155H18.5469V4.22001H23.1423L26.8597 7.29881L26.8198 15.1041H26.2268C25.9133 15.1041 25.6567 15.3607 25.6567 15.6743C25.6567 15.9879 25.9133 16.2444 26.2268 16.2444H27.3842C27.6978 16.2444 27.9544 15.9936 27.9544 15.68L28 7.03654C27.9943 6.8655 27.9202 6.70016 27.789 6.59183Z" fill="#333333"/>
</svg>
