<svg width="12" height="12" viewBox="0 0 12 12" fill="none" xmlns="http://www.w3.org/2000/svg">
<path fill-rule="evenodd" clip-rule="evenodd" d="M1.17341 0.201331C0.904977 -0.0671103 0.46976 -0.0671104 0.201325 0.201331C-0.0671091 0.469772 -0.0671081 0.905003 0.201326 1.17344L5.02834 6.00058L0.203378 10.8257C-0.0650563 11.0941 -0.0650569 11.5293 0.203377 11.7978C0.471812 12.0662 0.90703 12.0662 1.17546 11.7978L6.00042 6.9727L10.8248 11.7972C11.0933 12.0657 11.5285 12.0657 11.7969 11.7972C12.0654 11.5288 12.0654 11.0936 11.7969 10.8251L6.97251 6.00058L11.799 1.17399C12.0674 0.905546 12.0674 0.470317 11.799 0.201875C11.5305 -0.0665663 11.0953 -0.0665654 10.8269 0.201876L6.00042 5.02847L1.17341 0.201331Z" fill="#828282"/>
</svg>
