<svg width="32" height="32" viewBox="0 0 32 32" fill="none" xmlns="http://www.w3.org/2000/svg">
<path d="M2.8577 24.1136C2.85749 24.0587 2.86517 24.0042 2.88074 23.9523L6.74744 11.1627C6.80724 10.9645 6.97303 10.8329 7.16032 10.8346L24.7322 10.9988C24.9193 11.0005 25.0867 11.1352 25.1494 11.3346L29.19 24.1981C29.2375 24.3494 29.2174 24.5159 29.1358 24.6451C29.0543 24.7742 28.9214 24.8503 28.7793 24.849L3.30031 24.611C3.05767 24.6087 2.85955 24.3859 2.8577 24.1136ZM7.4798 11.8241L3.90874 23.63L28.1577 23.8565L24.4259 11.9824L7.4798 11.8241Z" fill="#EB5757"/>
<path d="M5.34409 22.1634C5.34372 22.1094 5.35141 22.0558 5.36667 22.0048L7.9948 13.1499C8.05426 12.9506 8.22037 12.8176 8.40862 12.8193L23.5098 12.9604C23.6978 12.9625 23.8657 13.0983 23.9275 13.2988L26.6764 22.2039C26.7228 22.3548 26.7022 22.5205 26.6209 22.6493C26.5394 22.7775 26.4071 22.8535 26.2655 22.8523L5.7867 22.661C5.54406 22.6587 5.34594 22.4361 5.34409 22.1634ZM8.72939 13.809L6.39352 21.6801L25.6452 21.86L23.2024 13.9442L8.72939 13.809Z" fill="#EB5757"/>
<path d="M2.87195 26.0252L2.85455 24.1262C2.85215 23.8638 3.04683 23.6527 3.28947 23.6544L28.769 23.8318C29.0116 23.8335 29.2102 24.0473 29.2126 24.3097L29.23 26.2087C29.2324 26.4708 29.0377 26.6819 28.7951 26.6802L3.31556 26.5028C3.07292 26.5011 2.87435 26.2873 2.87195 26.0252ZM3.73744 24.607L3.74613 25.5565L28.3471 25.7277L28.3384 24.7783L3.73744 24.607Z" fill="black"/>
<mask id="path-4-inside-1" fill="white">
<rect x="2.85498" y="4.91113" width="26.3776" height="21.6522" rx="0.6"/>
</mask>
<rect x="2.85498" y="4.91113" width="26.3776" height="21.6522" rx="0.6" stroke="black" stroke-width="1.6" mask="url(#path-4-inside-1)"/>
<line x1="13.6743" y1="15.1321" x2="17.8743" y2="15.1321" stroke="#EB5757" stroke-linecap="round"/>
</svg>
