<svg width="32" height="32" viewBox="0 0 32 32" fill="none" xmlns="http://www.w3.org/2000/svg">
<g clip-path="url(#clip0)">
<path d="M17.947 30.6849C17.8915 30.6703 17.8388 30.6471 17.7911 30.6159L6.03568 22.9006C5.85347 22.7812 5.76969 22.563 5.82674 22.3572L11.1791 3.04417C11.236 2.8385 11.4213 2.69045 11.6408 2.6753L25.8048 1.69974C25.9714 1.68827 26.1334 1.75543 26.2396 1.88029C26.3457 2.00497 26.3832 2.17189 26.34 2.32804L18.5792 30.3317C18.5053 30.5984 18.2221 30.7564 17.947 30.6849ZM6.91884 22.2726L17.7695 29.3964L25.1556 2.74469L12.0806 3.64733L6.91884 22.2726Z" fill="black"/>
<path d="M16.7145 27.4185C16.6599 27.4043 16.6081 27.3813 16.5612 27.3507L8.40787 22.063C8.22447 21.9437 8.13933 21.7247 8.19667 21.5178L12.7964 4.92029C12.854 4.71383 13.0406 4.56554 13.2609 4.55155L23.0521 3.92949C23.218 3.91917 23.3789 3.98662 23.4848 4.11103C23.5901 4.23547 23.6276 4.40164 23.5846 4.55731L17.3469 27.0653C17.273 27.332 16.99 27.4901 16.7145 27.4185ZM9.28935 21.4319L16.5369 26.1318L22.4009 4.97259L13.6978 5.52474L9.28935 21.4319Z" fill="black"/>
<path d="M19.9408 31.2033L17.947 30.6848C17.6715 30.6132 17.5083 30.3391 17.5822 30.0724L25.343 2.06872C25.4169 1.80204 25.6999 1.64395 25.9754 1.71559L27.9692 2.23404C28.2444 2.30558 28.4076 2.57969 28.3337 2.84638L20.5729 30.85C20.499 31.1167 20.216 31.2748 19.9408 31.2033ZM18.713 29.8488L19.7098 30.108L27.2031 3.06996L26.2062 2.81076L18.713 29.8488Z" fill="#EB5757"/>
<path d="M10.9661 20.327C10.9711 20.2635 10.9887 20.2016 11.0178 20.1447C11.0783 20.0259 11.1853 19.9352 11.3151 19.8926C11.4447 19.8502 11.5867 19.8593 11.7093 19.9181L14.2001 21.1124C14.3895 21.2032 14.5026 21.3965 14.4859 21.6004L14.4043 22.597C14.3818 22.8721 14.133 23.0776 13.8488 23.0558C13.5649 23.034 13.3527 22.793 13.3752 22.5179L13.4292 21.8586L11.2517 20.8146C11.0625 20.7242 10.9494 20.5309 10.9661 20.327Z" fill="black"/>
</g>
<defs>
<clipPath id="clip0">
<rect width="32" height="32" fill="white"/>
</clipPath>
</defs>
</svg>
