<svg width="32" height="32" viewBox="0 0 32 32" fill="none" xmlns="http://www.w3.org/2000/svg">
<path d="M11.1539 4.00003L11.4492 2.98671C11.5194 2.74561 11.7324 2.57377 11.9829 2.55604L27.5108 1.45737C27.9292 1.42777 28.2481 1.82575 28.128 2.22769L19.7543 30.2466C19.6418 30.623 19.2038 30.7916 18.868 30.5876L5.67263 22.5748C5.41371 22.4176 5.31259 22.092 5.43689 21.8158L5.67911 21.2775" stroke="#EB5757" stroke-linecap="round"/>
<path d="M17.7442 28.7787L15.8902 28.3264C15.6341 28.2639 15.4823 28.0248 15.551 27.7921L22.7674 3.36125C22.8362 3.1286 23.0993 2.99067 23.3555 3.05317L25.2094 3.50548C25.4653 3.56789 25.617 3.80703 25.5483 4.03969L18.3319 28.4706C18.2632 28.7032 18 28.8411 17.7442 28.7787ZM16.6025 27.5971L17.5294 27.8232L24.497 4.23475L23.5701 4.00862L16.6025 27.5971Z" fill="black"/>
<path d="M15.891 28.3263C15.8395 28.3136 15.7905 28.2934 15.7461 28.2662L4.81528 21.5352C4.64586 21.431 4.56795 21.2407 4.621 21.0611L9.59786 4.21212C9.65086 4.03269 9.82314 3.90353 10.0272 3.89031L23.1976 3.03922C23.3526 3.02921 23.5032 3.08781 23.6019 3.19673C23.7006 3.3055 23.7355 3.45113 23.6953 3.58736L16.4789 28.0182C16.4102 28.2509 16.1469 28.3888 15.891 28.3263ZM5.6365 20.9873L15.726 27.2022L22.594 3.95085L10.4361 4.73833L5.6365 20.9873Z" fill="black"/>
<path d="M14.745 25.4769C14.6942 25.4645 14.6461 25.4445 14.6025 25.4178L7.02106 20.8047C6.85053 20.7006 6.77136 20.5096 6.82468 20.329L11.1018 5.84907C11.1554 5.66895 11.3288 5.53958 11.5337 5.52737L20.638 4.98468C20.7923 4.97567 20.942 5.03452 21.0404 5.14305C21.1383 5.25161 21.1732 5.39658 21.1332 5.53239L15.333 25.1688C15.2643 25.4014 15.0012 25.5394 14.745 25.4769ZM7.84071 20.2541L14.5799 24.3544L20.0325 5.89469L11.9399 6.3764L7.84071 20.2541Z" fill="black"/>
<path d="M9.40004 19.29C9.4047 19.2346 9.42104 19.1806 9.44812 19.131C9.50443 19.0274 9.60391 18.9482 9.72459 18.911C9.84507 18.8741 9.97715 18.882 10.0912 18.9333L12.4072 19.9752C12.5833 20.0544 12.6885 20.2231 12.673 20.401L12.5971 21.2704C12.5761 21.5104 12.3448 21.6897 12.0806 21.6707C11.8165 21.6516 11.6192 21.4414 11.6402 21.2014L11.6904 20.6262L9.66565 19.7154C9.48969 19.6365 9.38451 19.4679 9.40004 19.29Z" fill="black"/>
</svg>
