<svg width="32" height="32" viewBox="0 0 32 32" fill="none" xmlns="http://www.w3.org/2000/svg">
<path d="M23.4811 9.84146C23.619 9.33478 23.5475 8.80412 23.2798 8.34741C23.0133 7.8929 22.5853 7.5675 22.074 7.43059C22.0716 7.42991 22.0691 7.42924 22.0667 7.4286C21.8982 7.3841 21.7249 7.36157 21.5514 7.36157C20.6461 7.36157 19.8507 7.96197 19.6169 8.82159L19.2144 10.3012H13.0175L13.1426 9.84146C13.2805 9.33478 13.209 8.80412 12.9412 8.34745C12.6745 7.8925 12.2461 7.567 11.7342 7.43023C11.7322 7.42964 11.7301 7.4291 11.7281 7.4286C11.5597 7.3841 11.3862 7.36157 11.2127 7.36157C10.3078 7.36157 9.51227 7.96197 9.27835 8.82159L4.06272 27.9929C3.92487 28.4996 3.99627 29.0303 4.26401 29.487C4.5318 29.9437 4.96252 30.27 5.47701 30.4057C5.47963 30.4064 5.48215 30.4071 5.48476 30.4077C5.63705 30.4473 5.79338 30.468 5.95008 30.4713C5.95906 30.4718 5.96781 30.4726 5.97693 30.4726H5.99183H5.99375H6.52539C6.79533 30.4726 7.06643 30.3924 7.40527 30.0484C7.67157 29.7195 7.79687 29.5096 7.92685 29.0126L9.08751 24.7463H15.2845L14.4013 27.9928C14.2634 28.4995 14.3348 29.0302 14.6027 29.4869C14.8704 29.9436 15.3012 30.2699 15.8156 30.4056C15.8182 30.4063 15.8207 30.407 15.8233 30.4076C15.9894 30.4508 16.1602 30.4726 16.3311 30.4726C16.3349 30.4726 16.3386 30.4724 16.3423 30.4724L16.3465 30.4726L16.8565 30.4726C17.021 30.4724 17.2928 30.365 17.5272 30.2061C17.7755 30.0029 17.8205 29.8859 17.941 29.7095L18.0519 29.5095C18.1444 29.3569 18.2172 29.1904 18.2656 29.0126L23.4811 9.84146ZM18.9523 11.2643L18.6903 12.2273H11.8563H11.5313C11.2618 12.2273 11.0425 12.0112 11.0425 11.7457C11.0425 11.4802 11.2618 11.2643 11.5313 11.2643H12.3803H18.9523ZM10.2843 18.0053H9.95944C9.68986 18.0053 9.47065 17.7893 9.47065 17.5238C9.47065 17.2583 9.68986 17.0423 9.95944 17.0423H10.8084H17.3804L17.1183 18.0053H10.2843ZM16.8565 18.9683L16.0705 21.8572H9.8735L10.6594 18.9683H16.8565ZM11.4455 16.0793L12.2314 13.1903H18.4284L17.6425 16.0793H11.4455ZM6.98241 28.7635C6.86307 29.2027 6.45628 29.5094 5.99316 29.5096H5.99183C5.90397 29.5096 5.81593 29.4981 5.73027 29.4755C5.72849 29.475 5.72665 29.4745 5.72487 29.4741C5.46505 29.4041 5.24717 29.2378 5.11087 29.0054C4.97375 28.7716 4.93699 28.5005 5.00729 28.2422L10.2229 9.07094C10.3424 8.63151 10.7495 8.32461 11.2128 8.32461C11.2993 8.32461 11.3861 8.33576 11.4707 8.3577L11.4751 8.35892C11.7373 8.42807 11.9572 8.59499 12.0944 8.829C12.2315 9.06291 12.2684 9.33392 12.1981 9.59221L12.0053 10.3013H11.5314C10.7227 10.3013 10.0648 10.9493 10.0648 11.7458C10.0648 11.7692 10.0654 11.7925 10.0665 11.8157C10.067 11.8232 10.0676 11.8307 10.0681 11.8382C10.0691 11.8538 10.0702 11.8693 10.0717 11.8848C10.0725 11.8937 10.0736 11.9024 10.0747 11.9112C10.0763 11.9253 10.0781 11.9393 10.0801 11.9532C10.0814 11.9623 10.0829 11.9714 10.0844 11.9805C10.0867 11.9941 10.0892 12.0076 10.0917 12.021C10.0935 12.03 10.0952 12.0389 10.0971 12.0478C10.1002 12.0615 10.1034 12.0752 10.1067 12.0888C10.1088 12.0971 10.1107 12.1055 10.1131 12.1137C10.117 12.1287 10.1214 12.1435 10.1258 12.1583C10.1279 12.1649 10.1297 12.1716 10.1319 12.1783C10.1385 12.1994 10.1457 12.2203 10.1534 12.2411C10.1548 12.2448 10.1565 12.2485 10.1579 12.2523C10.1643 12.2693 10.171 12.2861 10.178 12.3028C10.1812 12.3102 10.1846 12.3174 10.1879 12.3247C10.1936 12.3376 10.1994 12.3504 10.2055 12.3631C10.2094 12.3712 10.2135 12.3792 10.2175 12.3872C10.2234 12.3989 10.2294 12.4105 10.2357 12.4221C10.2401 12.4303 10.2446 12.4384 10.2491 12.4465C10.2555 12.4578 10.2621 12.469 10.2687 12.4801C10.2734 12.4879 10.2781 12.4957 10.283 12.5034C10.2901 12.5148 10.2976 12.5261 10.305 12.5373C10.3098 12.5443 10.3143 12.5515 10.3192 12.5585C10.328 12.5711 10.337 12.5835 10.3462 12.5958C10.3501 12.601 10.3539 12.6065 10.3579 12.6117C10.371 12.6289 10.3845 12.6458 10.3984 12.6624C10.4024 12.6673 10.4067 12.6719 10.4108 12.6767C10.4209 12.6885 10.4311 12.7003 10.4416 12.7118C10.4474 12.7182 10.4534 12.7244 10.4594 12.7307C10.4686 12.7403 10.4778 12.7499 10.4871 12.7594C10.4936 12.7659 10.5003 12.7722 10.5069 12.7787C10.5162 12.7876 10.5256 12.7964 10.535 12.8051C10.5419 12.8114 10.5488 12.8176 10.5557 12.8238C10.5655 12.8323 10.5754 12.8406 10.5853 12.8489C10.5923 12.8548 10.5993 12.8606 10.6065 12.8664C10.617 12.8748 10.6278 12.8831 10.6386 12.8913C10.6454 12.8964 10.652 12.9016 10.6589 12.9066C10.6723 12.9164 10.686 12.9259 10.6996 12.9352C10.7041 12.9382 10.7085 12.9415 10.713 12.9445C10.7311 12.9565 10.7496 12.9681 10.7684 12.9795C10.7743 12.983 10.7804 12.9865 10.7865 12.99C10.7997 12.9976 10.8127 13.0052 10.8261 13.0124C10.8337 13.0166 10.8414 13.0205 10.8491 13.0245C10.8612 13.0308 10.8733 13.0369 10.8857 13.0429C10.8939 13.047 10.9022 13.0508 10.9105 13.0546C10.9227 13.0602 10.9349 13.0656 10.9472 13.071C10.9556 13.0745 10.964 13.0781 10.9724 13.0816C10.9851 13.0867 10.998 13.0917 11.0109 13.0965C11.0191 13.0996 11.0273 13.1028 11.0356 13.1057C11.0497 13.1107 11.0639 13.1153 11.0781 13.1199C11.0854 13.1223 11.0926 13.1247 11.0999 13.1269C11.1203 13.1332 11.141 13.139 11.1619 13.1443L11.1652 13.1453C11.1858 13.1505 11.2065 13.1553 11.2274 13.1596L10.433 16.0798H9.9593C9.15062 16.0798 8.49267 16.7277 8.49267 17.5243C8.49267 17.5478 8.49336 17.571 8.49446 17.5942C8.49487 17.6017 8.49547 17.6092 8.49597 17.6168C8.49698 17.6323 8.49808 17.6478 8.49959 17.6632C8.50046 17.6721 8.50152 17.6808 8.50257 17.6897C8.50417 17.7038 8.50601 17.7178 8.50798 17.7317C8.50931 17.7408 8.51077 17.7498 8.51229 17.7588C8.51458 17.7725 8.5171 17.7861 8.51962 17.7996C8.52141 17.8085 8.52315 17.8174 8.52503 17.8262C8.5281 17.84 8.53135 17.8537 8.53474 17.8674C8.53676 17.8756 8.53864 17.8839 8.54084 17.892C8.54496 17.9072 8.54936 17.9222 8.55385 17.937C8.55587 17.9435 8.55766 17.9501 8.55968 17.9565C8.56646 17.9777 8.57361 17.9988 8.58135 18.0195C8.58268 18.023 8.58424 18.0265 8.58557 18.03C8.59208 18.0472 8.59886 18.0643 8.6061 18.0812C8.60917 18.0884 8.61252 18.0955 8.61564 18.1026C8.62146 18.1157 8.62737 18.1288 8.6336 18.1417C8.6374 18.1495 8.64135 18.1573 8.64533 18.1651C8.65134 18.1771 8.65748 18.189 8.66385 18.2007C8.66816 18.2087 8.67256 18.2165 8.67696 18.2244C8.68356 18.236 8.6902 18.2475 8.69708 18.2588C8.70157 18.2664 8.70615 18.274 8.71083 18.2815C8.71816 18.2931 8.72586 18.3047 8.73347 18.3161C8.73805 18.323 8.74254 18.3299 8.74722 18.3367C8.75629 18.3498 8.76573 18.3627 8.77517 18.3755C8.77879 18.3803 8.78218 18.3852 8.78576 18.39C8.799 18.4073 8.81261 18.4244 8.82655 18.4411C8.83017 18.4454 8.83388 18.4495 8.83764 18.4538C8.84827 18.4662 8.85895 18.4785 8.8699 18.4905C8.87545 18.4966 8.88113 18.5025 8.88682 18.5085C8.89626 18.5184 8.90583 18.5284 8.91546 18.5381C8.92178 18.5444 8.92825 18.5505 8.93466 18.5567C8.9441 18.5658 8.95377 18.5749 8.96349 18.5838C8.97018 18.5899 8.97683 18.596 8.98366 18.6019C8.9936 18.6107 9.00368 18.6192 9.0139 18.6277C9.02069 18.6334 9.02742 18.639 9.03434 18.6446C9.04534 18.6534 9.05639 18.6619 9.06757 18.6704C9.07399 18.6752 9.08027 18.6802 9.08677 18.6849C9.10089 18.6952 9.11524 18.7051 9.12976 18.715C9.13348 18.7175 9.1371 18.7202 9.14095 18.7227C9.15928 18.7349 9.17779 18.7466 9.19672 18.7579C9.20236 18.7614 9.20818 18.7645 9.21382 18.7679C9.22725 18.7757 9.24077 18.7835 9.25452 18.7909C9.26185 18.795 9.26932 18.7987 9.27674 18.8025C9.28916 18.809 9.30158 18.8154 9.31409 18.8215C9.32211 18.8253 9.33014 18.829 9.33825 18.8327C9.35058 18.8385 9.363 18.844 9.3756 18.8494C9.3838 18.853 9.39214 18.8564 9.40044 18.8598C9.41336 18.8651 9.42629 18.8701 9.4394 18.875C9.44742 18.878 9.45544 18.881 9.46355 18.8839C9.47789 18.889 9.49238 18.8938 9.507 18.8985C9.51401 18.9007 9.52084 18.9031 9.5278 18.9052C9.54893 18.9116 9.57029 18.9176 9.59178 18.9231L9.5932 18.9236C9.61374 18.9288 9.63445 18.9336 9.65535 18.9379L8.86097 21.8581H8.38717C7.57849 21.8581 6.92054 22.5061 6.92054 23.3026C6.92054 23.3261 6.92123 23.3494 6.92233 23.3725C6.9226 23.38 6.92329 23.3876 6.92384 23.3951C6.9248 23.4106 6.92595 23.4262 6.92737 23.4417C6.92824 23.4505 6.92939 23.4592 6.93035 23.4681C6.93205 23.4821 6.93379 23.4962 6.93576 23.5101C6.93709 23.5193 6.93864 23.5282 6.94007 23.5373C6.94236 23.5509 6.94483 23.5646 6.94749 23.5782C6.94919 23.587 6.95102 23.5958 6.95281 23.6045C6.95588 23.6185 6.95922 23.6323 6.96261 23.6461C6.96463 23.6542 6.96651 23.6623 6.96862 23.6704C6.97283 23.6858 6.97733 23.7012 6.98195 23.7164C6.98374 23.7225 6.98548 23.7287 6.98736 23.7349C6.99415 23.7561 7.00139 23.7773 7.00922 23.7982C7.01019 23.8009 7.01133 23.8035 7.01234 23.8063C7.01922 23.8243 7.02636 23.8423 7.03388 23.86C7.03677 23.8667 7.03979 23.8732 7.04277 23.88C7.04878 23.8936 7.05501 23.9071 7.06152 23.9206C7.06505 23.928 7.06885 23.9354 7.07261 23.9428C7.07879 23.9552 7.0853 23.9676 7.0919 23.9799C7.09589 23.9874 7.10011 23.9949 7.10432 24.0022C7.11111 24.0143 7.11807 24.0263 7.12527 24.0382C7.12958 24.0453 7.13388 24.0524 7.13838 24.0594C7.14612 24.0718 7.154 24.0839 7.16212 24.0961C7.16633 24.1023 7.17032 24.1085 7.17454 24.1146C7.18457 24.129 7.19488 24.1432 7.20538 24.1572C7.20799 24.1608 7.21051 24.1644 7.21322 24.1679C7.22664 24.1856 7.24053 24.203 7.25478 24.22C7.25726 24.223 7.25987 24.2257 7.26221 24.2287C7.27394 24.2425 7.28595 24.2561 7.29819 24.2696C7.30309 24.2748 7.30799 24.28 7.31299 24.2852C7.32321 24.296 7.33343 24.3067 7.34393 24.3172C7.34965 24.3229 7.35547 24.3284 7.36125 24.334C7.37147 24.3438 7.38178 24.3536 7.39228 24.3631C7.39828 24.3686 7.40442 24.374 7.41052 24.3795C7.42124 24.3889 7.43206 24.3982 7.44306 24.4073C7.44915 24.4123 7.4552 24.4174 7.46139 24.4224C7.47321 24.432 7.48536 24.4413 7.49755 24.4505C7.50296 24.4546 7.50837 24.4587 7.51387 24.4628C7.52972 24.4744 7.54576 24.4857 7.56208 24.4966C7.5641 24.498 7.56607 24.4994 7.56808 24.5008C7.58683 24.5132 7.60571 24.5252 7.625 24.5368C7.62931 24.5394 7.6338 24.5418 7.6382 24.5443C7.65301 24.553 7.66776 24.5615 7.68289 24.5696C7.68949 24.5732 7.69613 24.5766 7.70283 24.5801C7.71593 24.5869 7.72909 24.5936 7.74247 24.6001C7.74999 24.6038 7.75759 24.6073 7.76511 24.6108C7.77803 24.6167 7.79087 24.6225 7.80397 24.6281C7.81181 24.6315 7.8196 24.6348 7.82753 24.638C7.84078 24.6434 7.85425 24.6486 7.86772 24.6536C7.87547 24.6566 7.88317 24.6595 7.89096 24.6623C7.90558 24.6674 7.92038 24.6723 7.93505 24.6771C7.94192 24.6792 7.94862 24.6815 7.9554 24.6836C7.97643 24.69 7.99747 24.6959 8.01883 24.7014L8.02103 24.702C8.04156 24.7072 8.06237 24.712 8.08327 24.7164L6.98241 28.7635ZM8.71243 23.7833H8.3874C8.11782 23.7833 7.89861 23.5673 7.89861 23.3018C7.89861 23.0363 8.11782 22.8203 8.3874 22.8203H9.23637H15.8084L15.5465 23.7833L8.71243 23.7833ZM17.321 28.7635C17.2015 29.2028 16.7943 29.5097 16.3311 29.5097C16.243 29.5097 16.1547 29.4982 16.0689 29.4756C16.067 29.4751 16.0652 29.4746 16.0634 29.4742C15.8035 29.4041 15.5856 29.2378 15.4494 29.0054C15.3122 28.7716 15.2755 28.5005 15.3458 28.2422L18.313 17.3353L18.4898 16.6855L18.49 16.6845L20.5613 9.07076C20.6809 8.63147 21.0879 8.32466 21.5514 8.32466C21.6377 8.32466 21.7241 8.33567 21.8085 8.35752C21.8101 8.35806 21.8137 8.35896 21.8137 8.35896C22.0759 8.42812 22.2958 8.59504 22.4329 8.82904C22.5702 9.06295 22.607 9.33396 22.5367 9.59225L17.321 28.7635Z" fill="black"/>
<path d="M21.0859 24.9418C20.8098 24.9418 20.5859 25.1656 20.5859 25.4418C20.5859 25.7179 20.8098 25.9418 21.0859 25.9418V24.9418ZM23.3949 7.52903C23.3353 7.79867 23.5056 8.06556 23.7752 8.12516C24.0448 8.18475 24.3117 8.01448 24.3713 7.74484L23.3949 7.52903ZM24.1931 6.23422L23.7049 6.12632L24.1931 6.23422ZM27.2561 7.03078L26.773 6.9018L27.2561 7.03078ZM21.0859 25.9418H21.1385V24.9418H21.0859V25.9418ZM23.1337 24.4094L27.7391 7.15975L26.773 6.9018L22.1676 24.1514L23.1337 24.4094ZM26.4056 4.66499L26.3408 4.64294L26.0186 5.58959L26.0834 5.61164L26.4056 4.66499ZM23.7049 6.12632L23.3949 7.52903L24.3713 7.74484L24.6813 6.34212L23.7049 6.12632ZM24.4545 4.95152C24.0738 5.24238 23.8083 5.65852 23.7049 6.12632L24.6813 6.34212C24.7338 6.10481 24.8685 5.89369 25.0616 5.74614L24.4545 4.95152ZM26.3408 4.64294C25.6999 4.42477 24.9925 4.5405 24.4545 4.95152L25.0616 5.74614C25.3345 5.53762 25.6934 5.47891 26.0186 5.58959L26.3408 4.64294ZM27.6778 5.89948C27.4602 5.31812 26.9932 4.86504 26.4056 4.66499L26.0834 5.61164C26.3872 5.71509 26.6287 5.94941 26.7413 6.25005L27.6778 5.89948ZM27.7391 7.15975C27.8503 6.7435 27.8288 6.30296 27.6778 5.89948L26.7413 6.25005C26.8194 6.45871 26.8305 6.68654 26.773 6.9018L27.7391 7.15975ZM21.5766 25.8948C22.333 25.7306 22.9341 25.1572 23.1337 24.4094L22.1676 24.1514C22.0646 24.5371 21.7546 24.8328 21.3645 24.9175L21.5766 25.8948ZM21.1385 25.9418C21.2858 25.9418 21.4327 25.926 21.5766 25.8948L21.3645 24.9175C21.2902 24.9337 21.2145 24.9418 21.1385 24.9418V25.9418Z" fill="black"/>
<path d="M16.9067 10.2512C16.8267 10.5155 16.976 10.7946 17.2403 10.8747C17.5046 10.9548 17.7837 10.8055 17.8638 10.5412L16.9067 10.2512ZM14.4015 7.48986C14.3203 7.75378 14.4684 8.03359 14.7323 8.11484C14.9962 8.19608 15.276 8.048 15.3573 7.78408L14.4015 7.48986ZM17.8638 10.5412L18.9344 7.00779L17.9773 6.71781L16.9067 10.2512L17.8638 10.5412ZM17.6424 4.49087L17.6027 4.47734L17.2804 5.42399L17.3202 5.43752L17.6424 4.49087ZM14.905 5.85453L14.4015 7.48986L15.3573 7.78408L15.8607 6.14875L14.905 5.85453ZM15.6409 4.79827C15.2916 5.06514 15.0343 5.43441 14.905 5.85453L15.8607 6.14875C15.9288 5.92766 16.0642 5.73333 16.248 5.59288L15.6409 4.79827ZM17.6027 4.47734C16.9361 4.25043 16.2003 4.3708 15.6409 4.79827L16.248 5.59288C16.5424 5.36792 16.9296 5.30457 17.2804 5.42399L17.6027 4.47734ZM18.8927 5.70407C18.6788 5.13274 18.2199 4.68746 17.6424 4.49087L17.3202 5.43752C17.6139 5.53752 17.8473 5.76402 17.9561 6.05464L18.8927 5.70407ZM18.9344 7.00779C19.0639 6.58041 19.0492 6.1223 18.8927 5.70407L17.9561 6.05464C18.0358 6.26739 18.0432 6.50042 17.9773 6.71781L18.9344 7.00779Z" fill="black"/>
<path d="M8.14011 7.30699C8.37079 7.45879 8.68085 7.39485 8.83265 7.16417C8.98445 6.9335 8.92051 6.62344 8.68983 6.47164L8.14011 7.30699ZM30.8073 7.54398C30.9929 7.74845 31.3091 7.76375 31.5135 7.57816C31.718 7.39256 31.7333 7.07635 31.5477 6.87187L30.8073 7.54398ZM26.3247 1.86169L25.9545 2.19774L26.3247 1.86169ZM8.68983 6.47164L2.45616 2.36944L1.90644 3.20479L8.14011 7.30699L8.68983 6.47164ZM2.45616 2.36944L25.577 2.03384L25.5625 1.03395L2.44164 1.36954L2.45616 2.36944ZM25.9545 2.19774L30.8073 7.54398L31.5477 6.87187L26.695 1.52563L25.9545 2.19774ZM25.577 2.03384C25.7205 2.03176 25.858 2.09146 25.9545 2.19774L26.695 1.52563C26.4056 1.20679 25.9931 1.0277 25.5625 1.03395L25.577 2.03384ZM2.45616 2.36944L2.45616 2.36944L2.44164 1.36954C1.45675 1.38384 1.08362 2.66331 1.90644 3.20479L2.45616 2.36944Z" fill="#EB5757"/>
</svg>
