<svg width="17" height="13" viewBox="0 0 17 13" fill="none" xmlns="http://www.w3.org/2000/svg">
<path fill-rule="evenodd" clip-rule="evenodd" d="M16.1798 0.394775H0.820185C0.367209 0.394775 0 0.693252 0 1.06144C0 1.42963 0.367211 1.72811 0.820186 1.72811H16.1798C16.6328 1.72811 17 1.42963 17 1.06144C17 0.693252 16.6328 0.394775 16.1798 0.394775ZM0.123918 0.983656C0.170599 0.70499 0.464539 0.490247 0.820185 0.490247H16.1798C16.5679 0.490247 16.8825 0.745979 16.8825 1.06144C16.8825 1.08805 16.8803 1.11422 16.876 1.13986C16.8802 1.11442 16.8824 1.08846 16.8824 1.06207C16.8824 0.746611 16.5678 0.490878 16.1797 0.490878H0.820079C0.464701 0.490878 0.170937 0.705297 0.123918 0.983656Z" fill="#333333"/>
<path fill-rule="evenodd" clip-rule="evenodd" d="M16.1798 5.72815H0.820185C0.367209 5.72815 0 6.02663 0 6.39482C0 6.76301 0.367211 7.06148 0.820186 7.06148H16.1798C16.6328 7.06148 17 6.76301 17 6.39482C17 6.02663 16.6328 5.72815 16.1798 5.72815ZM0.123918 6.31703C0.170599 6.03836 0.464539 5.82362 0.820185 5.82362H16.1798C16.5679 5.82362 16.8825 6.07935 16.8825 6.39482C16.8825 6.42142 16.8803 6.4476 16.876 6.47323C16.8802 6.4478 16.8824 6.42183 16.8824 6.39545C16.8824 6.07998 16.5678 5.82425 16.1797 5.82425H0.820079C0.464701 5.82425 0.170937 6.03867 0.123918 6.31703Z" fill="#333333"/>
<path fill-rule="evenodd" clip-rule="evenodd" d="M16.1798 11.0614H0.820185C0.367209 11.0614 0 11.3599 0 11.7281C0 12.0963 0.367211 12.3947 0.820186 12.3947H16.1798C16.6328 12.3947 17 12.0963 17 11.7281C17 11.3599 16.6328 11.0614 16.1798 11.0614ZM0.123918 11.6503C0.170599 11.3716 0.464539 11.1569 0.820185 11.1569H16.1798C16.5679 11.1569 16.8825 11.4126 16.8825 11.7281C16.8825 11.7547 16.8803 11.7808 16.876 11.8065C16.8802 11.7811 16.8824 11.7551 16.8824 11.7287C16.8824 11.4132 16.5678 11.1575 16.1797 11.1575H0.820079C0.464701 11.1575 0.170937 11.3719 0.123918 11.6503Z" fill="#333333"/>
</svg>
