<svg width="15" height="16" viewBox="0 0 15 16" fill="none" xmlns="http://www.w3.org/2000/svg">
<path d="M8.8226 7.96355L8.68113 8.10497L8.82258 8.24642L14.5572 13.9811C14.8805 14.3045 14.8812 14.8364 14.5572 15.1625C14.2312 15.4865 13.6992 15.4858 13.3758 15.1625L7.64116 9.42777L7.49971 9.28633L7.35829 9.4278L1.62603 15.1621C1.62596 15.1622 1.6259 15.1623 1.62584 15.1623C1.30009 15.4862 0.769852 15.4862 0.444059 15.1622C0.118367 14.8363 0.118965 14.3048 0.443945 13.9815L0.444341 13.9811L6.17699 8.24639L6.31836 8.10497L6.17696 7.96357L0.444316 2.2309L0.444304 2.23089C0.118587 1.90522 0.118604 1.37531 0.444328 1.04953C0.770005 0.723796 1.29991 0.723779 1.62567 1.04954L1.62567 1.04954L7.35838 6.78222L7.49978 6.92361L7.6412 6.78224L13.3759 1.04957L13.3763 1.04917C13.6996 0.724172 14.2311 0.723578 14.5571 1.04937C14.881 1.3751 14.881 1.90533 14.557 2.23112C14.557 2.23117 14.5569 2.23122 14.5569 2.23127L8.8226 7.96355Z" fill="#171717" stroke="white" stroke-width="0.4"/>
</svg>
