<svg width="28" height="28" viewBox="0 0 28 28" fill="none" xmlns="http://www.w3.org/2000/svg">
<path d="M22.8915 18.4143C22.2073 18.4143 21.5573 18.6822 21.067 19.1669C20.5767 19.6572 20.303 20.2958 20.303 20.9799C20.303 21.6641 20.571 22.3027 21.067 22.793C21.563 23.2776 22.2073 23.5456 22.8915 23.5456C24.294 23.5456 25.4343 22.3939 25.4343 20.9799C25.4343 19.566 24.294 18.4143 22.8915 18.4143ZM22.8915 22.4053C22.1047 22.4053 21.4433 21.7553 21.4433 20.9799C21.4433 20.2045 22.1047 19.5546 22.8915 19.5546C23.6669 19.5546 24.294 20.1931 24.294 20.9799C24.294 21.7667 23.6669 22.4053 22.8915 22.4053ZM8.96844 18.4143C8.28426 18.4143 7.63429 18.6822 7.14396 19.1669C6.65364 19.6572 6.37996 20.2958 6.37996 20.9799C6.37996 21.6641 6.64793 22.3027 7.14396 22.793C7.63999 23.2776 8.28426 23.5456 8.96844 23.5456C10.371 23.5456 11.5113 22.3939 11.5113 20.9799C11.5113 19.566 10.371 18.4143 8.96844 18.4143ZM8.96844 22.4053C8.18163 22.4053 7.52026 21.7553 7.52026 20.9799C7.52026 20.2045 8.18163 19.5546 8.96844 19.5546C9.74384 19.5546 10.371 20.1931 10.371 20.9799C10.371 21.7667 9.74384 22.4053 8.96844 22.4053ZM5.16555 19.1155H4.01955V17.599C4.01955 17.2854 3.76298 17.0288 3.4494 17.0288C3.13582 17.0288 2.87925 17.2854 2.87925 17.599V19.6857C2.87925 19.9993 3.13582 20.2558 3.4494 20.2558H5.16555C5.47913 20.2558 5.7357 19.9993 5.7357 19.6857C5.7357 19.3721 5.47913 19.1155 5.16555 19.1155ZM8.0562 16.0082C8.0562 15.6947 7.79963 15.4381 7.48605 15.4381H0.570149C0.256567 15.4381 0 15.6947 0 16.0082C0 16.3218 0.256567 16.5784 0.570149 16.5784H7.48605C7.79963 16.5784 8.0562 16.3275 8.0562 16.0082ZM1.72755 13.95L8.64345 13.9899C8.95704 13.9899 9.2136 13.739 9.2193 13.4255C9.225 13.1062 8.96844 12.8496 8.65486 12.8496L1.73895 12.8097C1.73325 12.8097 1.73325 12.8097 1.73325 12.8097C1.41967 12.8097 1.1631 13.0606 1.1631 13.3742C1.1574 13.6934 1.41397 13.95 1.72755 13.95ZM2.89065 11.3615H9.80656C10.1201 11.3615 10.3767 11.105 10.3767 10.7914C10.3767 10.4778 10.1201 10.2212 9.80656 10.2212H2.89065C2.57707 10.2212 2.3205 10.4778 2.3205 10.7914C2.3205 11.105 2.57707 11.3615 2.89065 11.3615ZM27.789 10.5918L23.7068 7.21085C23.6042 7.12533 23.4787 7.07971 23.3419 7.07971H18.5412V5.02718C18.5412 4.7136 18.2847 4.45703 17.9711 4.45703H3.4494C3.13582 4.45703 2.87925 4.7136 2.87925 5.02718V9.20067C2.87925 9.51425 3.13582 9.77082 3.4494 9.77082C3.76298 9.77082 4.01955 9.51425 4.01955 9.20067V5.59733H17.4066V19.1155H12.7314C12.4178 19.1155 12.1613 19.3721 12.1613 19.6857C12.1613 19.9993 12.4178 20.2558 12.7314 20.2558H19.6929C20.0065 20.2558 20.2631 19.9993 20.2631 19.6857C20.2631 19.3721 20.0065 19.1155 19.6929 19.1155H18.5469V8.22001H23.1423L26.8597 11.2988L26.8198 19.1041H26.2268C25.9133 19.1041 25.6567 19.3607 25.6567 19.6743C25.6567 19.9879 25.9133 20.2444 26.2268 20.2444H27.3842C27.6978 20.2444 27.9544 19.9936 27.9544 19.68L28 11.0365C27.9943 10.8655 27.9202 10.7002 27.789 10.5918Z" fill="#333333"/>
</svg>
