<svg width="17" height="17" viewBox="0 0 17 17" fill="none" xmlns="http://www.w3.org/2000/svg">
<path d="M16.5667 0.355556C16.4778 0.177778 16.3 0 16.0333 0H1.01111C0.833333 0 0.655556 0.177778 0.566667 0.355556C0.477778 0.533333 0.477778 0.8 0.566667 0.977778L6.34444 8.53333V15.5556C6.34444 15.7333 6.43333 16 6.61111 16.0889C6.7 16.1778 6.78889 16.1778 6.87778 16.1778C6.96667 16.1778 7.05555 16.1778 7.14444 16.0889L10.4333 14.3111C10.6111 14.2222 10.7889 13.9556 10.7889 13.7778V8.53333L16.5667 0.977778C16.6556 0.8 16.6556 0.533333 16.5667 0.355556ZM7.41111 8L2.25556 1.24444H14.8778L9.72222 8C9.63333 8.08889 9.63333 8.26667 9.63333 8.35556V13.4222L7.5 14.5778V8.35556C7.5 8.26667 7.5 8.08889 7.41111 8Z" fill="black"/>
</svg>
