<svg width="32" height="32" viewBox="0 0 32 32" fill="none" xmlns="http://www.w3.org/2000/svg">
<g clip-path="url(#clip0)">
<path d="M29.1737 7.54736H16.4282C16.3535 7.54736 16.285 7.58904 16.2506 7.65542L5.61989 28.1902C5.55097 28.3234 5.64759 28.4822 5.7975 28.4822H19.0447C19.1209 28.4822 19.1904 28.4389 19.2241 28.3707L29.3531 7.83584C29.4186 7.70292 29.3219 7.54736 29.1737 7.54736Z" stroke="black"/>
<path d="M24.0321 17.7429H18.8925C18.782 17.7429 18.6925 17.8325 18.6925 17.9429L18.6924 28.4822" stroke="#EB5757" stroke-linecap="round"/>
<path d="M20.563 18.0149V25.2952" stroke="#EB5757" stroke-linecap="round"/>
<path d="M6.99438 18.0149V25.2952" stroke="#EB5757" stroke-linecap="round"/>
<path d="M22.4458 17.7429V21.655" stroke="#EB5757" stroke-linecap="round"/>
<path d="M8.8772 17.7429V21.655" stroke="#EB5757" stroke-linecap="round"/>
<path d="M20.91 17.7429H5.66883C5.55838 17.7429 5.46883 17.8325 5.46883 17.9429L5.46875 28.4822" stroke="#EB5757" stroke-linecap="round"/>
<path d="M15.9793 5.22699C15.973 5.2259 15.9666 5.22542 15.9603 5.22555M15.9793 5.22699L15.9603 5.22555M15.9793 5.22699L29.3138 7.52604C29.3443 7.5313 29.36 7.5395 29.3667 7.54378C29.3736 7.5481 29.3779 7.55253 29.3814 7.55771C29.3897 7.56968 29.3999 7.59624 29.3964 7.63393C29.3929 7.67162 29.3779 7.69581 29.3675 7.70604C29.3631 7.71046 29.358 7.71402 29.3505 7.71699C29.3431 7.71994 29.3261 7.72508 29.2952 7.72458L16.3755 7.51352M15.9793 5.22699L16.3755 7.51352M15.9603 5.22555L-1.08311 5.5718L16.3755 7.51352M15.9603 5.22555L16.3755 7.51352" stroke="black"/>
</g>
<defs>
<clipPath id="clip0">
<rect width="32" height="32" fill="white"/>
</clipPath>
</defs>
</svg>
