<svg width="32" height="32" viewBox="0 0 32 32" fill="none" xmlns="http://www.w3.org/2000/svg">
<g clip-path="url(#clip0)">
<path d="M19.9408 31.2033L17.947 30.6849C17.6715 30.6132 17.5083 30.3391 17.5822 30.0724L25.343 2.06878C25.4169 1.8021 25.6999 1.64401 25.9754 1.71565L27.9692 2.2341C28.2444 2.30564 28.4076 2.57976 28.3337 2.84644L20.5729 30.8501C20.499 31.1168 20.216 31.2749 19.9408 31.2033ZM18.713 29.8489L19.7098 30.1081L27.2031 3.07002L26.2062 2.81082L18.713 29.8489Z" fill="black"/>
<path d="M17.947 30.6848C17.8915 30.6702 17.8388 30.647 17.7911 30.6158L6.03568 22.9006C5.85347 22.7811 5.76969 22.5629 5.82674 22.3571L11.1791 3.04411C11.236 2.83844 11.4213 2.69039 11.6408 2.67523L25.8048 1.69968C25.9714 1.68821 26.1334 1.75537 26.2396 1.88023C26.3457 2.00491 26.3832 2.17183 26.34 2.32798L18.5792 30.3316C18.5053 30.5983 18.2221 30.7564 17.947 30.6848ZM6.91884 22.2725L17.7695 29.3963L25.1556 2.74463L12.0806 3.64727L6.91884 22.2725Z" fill="black"/>
<path d="M16.7145 27.4185C16.6599 27.4043 16.6081 27.3814 16.5612 27.3508L8.40787 22.0631C8.22447 21.9437 8.13933 21.7248 8.19667 21.5179L12.7964 4.92035C12.854 4.71389 13.0406 4.5656 13.2609 4.55161L23.0521 3.92955C23.218 3.91923 23.3789 3.98668 23.4848 4.11109C23.5901 4.23553 23.6276 4.4017 23.5846 4.55737L17.3469 27.0654C17.273 27.3321 16.99 27.4902 16.7145 27.4185ZM9.28935 21.4319L16.5369 26.1319L22.4009 4.97265L13.6978 5.5248L9.28935 21.4319Z" fill="#EB5757"/>
<path d="M10.9661 20.3269C10.9711 20.2634 10.9887 20.2016 11.0178 20.1447C11.0783 20.0259 11.1853 19.9351 11.3151 19.8925C11.4447 19.8501 11.5867 19.8592 11.7093 19.9181L14.2001 21.1124C14.3895 21.2032 14.5026 21.3964 14.4859 21.6003L14.4043 22.597C14.3818 22.872 14.133 23.0776 13.8488 23.0557C13.5649 23.0339 13.3527 22.793 13.3752 22.5179L13.4292 21.8586L11.2517 20.8145C11.0625 20.7241 10.9494 20.5308 10.9661 20.3269Z" fill="#EB5757"/>
</g>
<defs>
<clipPath id="clip0">
<rect width="32" height="32" fill="white"/>
</clipPath>
</defs>
</svg>
