<svg width="32" height="32" viewBox="0 0 32 32" fill="none" xmlns="http://www.w3.org/2000/svg">
<path d="M23.1777 28.3719C23.1777 28.3719 23.4388 28.0067 28.8905 19.6291V15.899" stroke="black" stroke-width="0.8" stroke-linecap="round"/>
<path d="M10.3081 15.9334C10.3461 15.8881 10.4022 15.8619 10.4613 15.8619H28.4705C28.6305 15.8619 28.7257 16.0403 28.6367 16.1732L28.9691 16.3957L28.6367 16.1732L23.2345 24.2435C23.1974 24.299 23.135 24.3323 23.0683 24.3323H3.26335L10.3081 15.9334Z" stroke="black" stroke-width="0.8"/>
<path d="M10.5156 15.9673V24.0888" stroke="black" stroke-width="0.8"/>
<path d="M25.9033 6.02768C25.8336 5.84649 25.5727 5.86073 25.5232 6.04843L25.2816 6.96442C25.2709 7.00515 25.2733 7.04824 25.2884 7.08753L28.6476 15.7774L29.0369 14.2868C29.0474 14.2463 29.0451 14.2035 29.0301 14.1645L25.9033 6.02768Z" stroke="#EB5757" stroke-width="0.8"/>
<path d="M10.2172 15.7371L10.5673 15.5438L10.5673 15.5438L10.2172 15.7371ZM28.6338 15.4404C28.8547 15.4404 29.0338 15.6195 29.0338 15.8404C29.0338 16.0613 28.8547 16.2404 28.6338 16.2404V15.4404ZM5.69387 6.71766L10.5673 15.5438L9.86701 15.9305L4.99353 7.10436L5.69387 6.71766ZM10.3923 15.4404H28.6338V16.2404H10.3923V15.4404ZM10.5673 15.5438C10.5321 15.48 10.4651 15.4404 10.3923 15.4404V16.2404C10.1738 16.2404 9.9726 16.1217 9.867 15.9305L10.5673 15.5438Z" fill="#EB5757"/>
<path d="M6.28164 5.71901C6.21607 5.71901 6.15464 5.75112 6.11721 5.80496L5.44106 6.77747C5.34888 6.91006 5.44365 7.09141 5.60513 7.09141L25.0444 7.09142C25.1248 7.09142 25.1974 7.04332 25.2288 6.96931L25.7587 5.719L6.28164 5.71901Z" stroke="#EB5757" stroke-width="0.8"/>
<line x1="14.0366" y1="8.94666" x2="17.8713" y2="8.94666" stroke="#EB5757" stroke-linecap="round"/>
<mask id="path-8-inside-1" fill="white">
<rect x="2.83203" y="23.9419" width="20.782" height="4.86123" rx="0.6"/>
</mask>
<rect x="2.83203" y="23.9419" width="20.782" height="4.86123" rx="0.6" stroke="black" stroke-width="1.6" mask="url(#path-8-inside-1)"/>
</svg>
