<svg width="22" height="22" viewBox="0 0 22 22" fill="none" xmlns="http://www.w3.org/2000/svg">
<path d="M21.5625 3.91007C21.4819 3.7067 21.3043 3.55755 21.0901 3.51329C20.8756 3.46895 20.6537 3.53547 20.4991 3.69015L17.1478 7.04145L15.346 6.65404L14.9586 4.85228L18.3099 1.50094C18.4646 1.34626 18.5311 1.12411 18.4868 0.909908C18.4425 0.695667 18.2934 0.518163 18.09 0.437468C15.7892 -0.474928 13.1717 0.0660469 11.4218 1.81582C10.5795 2.65817 10.001 3.71615 9.74905 4.87544C9.53352 5.86725 9.56377 6.892 9.83461 7.86366L0.890914 16.8074C0.316379 17.3819 0 18.1457 0 18.9582C0 19.7707 0.316379 20.5346 0.890957 21.1091C1.46545 21.6836 2.22931 22 3.0418 22C3.85426 22 4.61815 21.6836 5.19265 21.1091L14.1364 12.1654C15.108 12.4363 16.1328 12.4665 17.1246 12.2509C18.2839 11.999 19.3419 11.4205 20.1842 10.5782C21.934 8.82835 22.4749 6.211 21.5625 3.91007ZM19.2652 9.65923C17.9398 10.9846 15.9404 11.4382 14.1713 10.8147C13.9354 10.7316 13.6727 10.7912 13.4958 10.9681L4.27367 20.1902C3.94462 20.5193 3.50707 20.7005 3.04172 20.7005C2.57632 20.7005 2.13886 20.5193 1.80976 20.1902C1.4807 19.8611 1.29946 19.4236 1.29946 18.9582C1.29946 18.4929 1.4807 18.0553 1.8098 17.7263L11.0319 8.50415C11.2088 8.32729 11.2684 8.06462 11.1853 7.82872C10.5618 6.05966 11.0153 4.06016 12.3407 2.73479C13.2774 1.79807 14.5286 1.29972 15.8038 1.29972C16.0714 1.29972 16.34 1.32163 16.6069 1.36611L13.7895 4.18356C13.6335 4.33949 13.5673 4.56392 13.6136 4.77958L14.1636 7.33763C14.2173 7.58745 14.4125 7.78257 14.6622 7.83628L17.2203 8.38628C17.4361 8.43265 17.6604 8.36643 17.8164 8.21045L20.6338 5.393C20.8901 6.93227 20.3984 8.52602 19.2652 9.65923Z" fill="#333333"/>
</svg>
