<svg width="145" height="31" viewBox="0 0 145 31" fill="none" xmlns="http://www.w3.org/2000/svg">
<g clip-path="url(#clip0)">
<path d="M42.7033 22.512H41.76L35.9238 10.4055H37.5597L42.2316 20.1087L46.9036 10.4055H48.5694L42.7033 22.512ZM48.3045 22.512V13.1458H57.0868V14.5159H49.7645V16.8518H54.5712V18.1995H49.7645V21.1644H57.4911V22.512H48.3045ZM57.8738 21.3141L58.5851 20.0862C59.229 20.5168 59.9328 20.8536 60.6927 21.0932C61.4564 21.3366 62.1826 21.4563 62.8789 21.4563C63.7138 21.4563 64.3876 21.2879 64.9004 20.9472C65.4133 20.6066 65.6678 20.1723 65.6678 19.6408C65.6678 19.1054 65.432 18.7124 64.9641 18.4503C64.4961 18.192 63.7586 18.0498 62.7479 18.0198C61.0408 17.9974 59.8692 17.7989 59.2327 17.4283C58.5963 17.054 58.2782 16.4363 58.2782 15.5753C58.2782 14.7704 58.6263 14.1228 59.3263 13.6324C60.0264 13.142 60.966 12.8987 62.1452 12.8987C62.95 12.8987 63.7287 13.011 64.4886 13.2393C65.2448 13.464 65.9748 13.8008 66.6786 14.2464L65.9411 15.4593C65.3571 15.0662 64.7282 14.763 64.0544 14.5458C63.3806 14.3325 62.7367 14.2239 62.1227 14.2239C61.4115 14.2239 60.8387 14.3475 60.4082 14.5945C59.9777 14.8453 59.7606 15.1673 59.7606 15.5678C59.7606 15.9833 59.9777 16.2791 60.412 16.455C60.8462 16.631 61.6024 16.717 62.6768 16.717C64.1704 16.717 65.2935 16.9679 66.0534 17.4732C66.8134 17.9786 67.1952 18.7273 67.1952 19.7231C67.1952 20.6066 66.8096 21.3403 66.0384 21.928C65.2673 22.512 64.2678 22.804 63.0399 22.804C62.1302 22.804 61.2318 22.673 60.3334 22.4147C59.4387 22.1564 58.6188 21.7895 57.8738 21.3141ZM71.1305 22.512V14.4485H67.1774V13.1458H76.5437V14.4485H72.5905V22.512H71.1305ZM77.8997 18.8958H81.5608L79.7415 15.3058L77.8997 18.8958ZM74.5044 22.512L79.2698 13.1458H80.1907L84.9936 22.512H83.4251L82.2085 20.1312H77.2633L76.0541 22.512H74.5044ZM84.5641 20.689L85.4401 19.39C86.2973 20.0526 87.1883 20.5579 88.1129 20.9098C89.0375 21.258 89.9547 21.4339 90.8606 21.4339C91.98 21.4339 92.8896 21.1981 93.5859 20.7226C94.286 20.2472 94.6341 19.637 94.6341 18.892C94.6341 18.3006 94.3833 17.8139 93.8817 17.4321C93.38 17.0502 92.6875 16.8219 91.804 16.747C91.5906 16.7246 91.2837 16.7021 90.8831 16.6833C88.8915 16.5411 87.5364 16.309 86.8101 15.9796C86.2486 15.7063 85.8181 15.3582 85.5261 14.9314C85.2341 14.5009 85.0882 14.0217 85.0882 13.4864C85.0882 12.5131 85.5224 11.712 86.3946 11.0793C87.2631 10.4505 88.3937 10.136 89.7825 10.136C90.7933 10.136 91.7891 10.3007 92.7736 10.6339C93.7581 10.9671 94.694 11.4612 95.5775 12.1126L94.7015 13.3704C93.9528 12.7677 93.1704 12.3147 92.3468 12.0077C91.5232 11.7045 90.6772 11.551 89.8087 11.551C88.8953 11.551 88.1428 11.7307 87.5476 12.0863C86.9562 12.442 86.6604 12.8874 86.6604 13.4228C86.6604 13.6324 86.7091 13.8271 86.8027 14.003C86.8962 14.179 87.046 14.3475 87.2407 14.5009C87.7385 14.8715 88.8129 15.1111 90.4675 15.2122C91.2275 15.2571 91.819 15.302 92.2345 15.3544C93.4624 15.4929 94.4357 15.886 95.1544 16.5374C95.8695 17.1887 96.2288 17.9861 96.2288 18.937C96.2288 20.0675 95.7384 20.9996 94.7539 21.7296C93.7694 22.4596 92.4778 22.8265 90.8831 22.8265C89.6777 22.8265 88.5546 22.6505 87.5215 22.3024C86.4845 21.9505 85.4999 21.4152 84.5641 20.689ZM100.232 22.512V14.4485H96.2784V13.1458H105.645V14.4485H101.692V22.512H100.232ZM107.686 17.054H112.665C113.17 17.054 113.556 16.9454 113.821 16.7246C114.087 16.5037 114.222 16.1892 114.222 15.7775C114.222 15.3694 114.087 15.055 113.821 14.8416C113.556 14.6245 113.17 14.5159 112.665 14.5159H107.686V17.054ZM107.686 18.4241V22.512H106.226V13.1682H112.665C113.623 13.1682 114.372 13.4003 114.915 13.8607C115.457 14.3212 115.727 14.9614 115.727 15.7812C115.727 16.4438 115.513 17.0203 115.083 17.507C114.656 17.9936 114.098 18.2931 113.41 18.4016L116.019 22.512H114.428L111.77 18.4241H107.686ZM122.399 21.4339C123.649 21.4339 124.671 21.097 125.461 20.4194C126.251 19.7456 126.644 18.8846 126.644 17.8401C126.644 16.8032 126.247 15.9459 125.453 15.2646C124.66 14.587 123.642 14.2464 122.399 14.2464C121.156 14.2464 120.141 14.5833 119.355 15.2608C118.569 15.9346 118.176 16.7957 118.176 17.8401C118.176 18.8846 118.569 19.7456 119.355 20.4194C120.141 21.097 121.156 21.4339 122.399 21.4339ZM122.399 22.804C120.733 22.804 119.359 22.3323 118.285 21.389C117.21 20.4494 116.671 19.2664 116.671 17.8401C116.671 16.4101 117.206 15.2272 118.277 14.295C119.352 13.3629 120.725 12.8987 122.399 12.8987C124.087 12.8987 125.468 13.3629 126.543 14.2913C127.613 15.2197 128.149 16.4026 128.149 17.8401C128.149 19.2739 127.61 20.4569 126.535 21.3964C125.461 22.3361 124.083 22.804 122.399 22.804ZM131.526 22.512V17.7316L127.259 13.1458H129.145L132.253 16.47L135.3 13.1458H137.254L132.964 17.7091V22.512H131.526Z" fill="#2B2A29"/>
<path fill-rule="evenodd" clip-rule="evenodd" d="M27.2747 13.7047H23.005L21.4994 17.2953H27.2747C26.4089 23.0209 21.4671 27.4093 15.5 27.4093C11.4141 27.4093 7.80917 25.3514 5.66419 22.2158H1.52652C4.02864 27.4132 9.34554 31 15.5 31C24.0604 31 30.9999 24.0604 30.9999 15.5C30.9999 14.8927 30.9638 14.2938 30.8959 13.7047H30.1671H27.2747ZM15.5 0C21.6544 0 26.971 3.5869 29.4734 8.78428H25.3358C23.1907 5.64865 19.5859 3.59068 15.5 3.59068C9.53289 3.59068 4.59096 7.97917 3.7253 13.7047H7.99498L9.50064 17.2953H3.7253H0.636384H0.104078C0.0361292 16.7062 0 16.1073 0 15.5C0 6.93957 6.93957 0 15.5 0Z" fill="#434242"/>
<path fill-rule="evenodd" clip-rule="evenodd" d="M17.2955 23.9009L10.9036 8.60522H7.31299L13.7048 23.9009H17.2955Z" fill="#EB5757"/>
<path fill-rule="evenodd" clip-rule="evenodd" d="M13.7048 23.9009L20.0967 8.60522H23.6873L17.2955 23.9009H13.7048Z" fill="#EB5757"/>
<path d="M135.493 22.0181C135.493 22.1958 135.425 22.3504 135.288 22.482C135.15 22.6137 134.964 22.6794 134.727 22.6794C134.491 22.6794 134.305 22.6137 134.167 22.482C134.03 22.3504 133.962 22.1958 133.962 22.0181C133.962 21.8405 134.03 21.6858 134.167 21.5543C134.305 21.4226 134.491 21.3568 134.727 21.3568C134.964 21.3568 135.15 21.4226 135.288 21.5543C135.425 21.6858 135.493 21.8405 135.493 22.0181ZM138.503 17.3101C138.595 17.3101 138.699 17.315 138.817 17.3249C138.936 17.3347 139.052 17.3479 139.166 17.3644C139.28 17.3808 139.385 17.3973 139.48 17.4137C139.576 17.4302 139.646 17.4449 139.692 17.4581L139.509 18.2576C139.425 18.2313 139.286 18.2 139.092 18.1639C138.897 18.1277 138.648 18.1096 138.343 18.1096C138.145 18.1096 137.949 18.1277 137.754 18.1639C137.56 18.2 137.432 18.2247 137.371 18.2379V22.5511H136.309V17.6358C136.56 17.5568 136.872 17.4828 137.246 17.4137C137.619 17.3446 138.038 17.3101 138.503 17.3101ZM144.713 22.403C144.469 22.4557 144.147 22.5116 143.747 22.5709C143.347 22.6301 142.884 22.6597 142.359 22.6597C141.901 22.6597 141.517 22.6021 141.204 22.487C140.892 22.3718 140.64 22.2089 140.45 21.9984C140.259 21.7878 140.122 21.5395 140.038 21.2532C139.955 20.967 139.913 20.6495 139.913 20.3007V17.4186H140.976V20.1033C140.976 20.7284 141.09 21.1759 141.319 21.4457C141.547 21.7154 141.932 21.8504 142.473 21.8504C142.587 21.8504 142.705 21.8471 142.827 21.8405C142.949 21.8339 143.064 21.8257 143.17 21.8158C143.277 21.8059 143.374 21.796 143.462 21.7862C143.549 21.7763 143.612 21.7648 143.65 21.7517V17.4186H144.713V22.403Z" fill="#EB5757"/>
</g>
<defs>
<clipPath id="clip0">
<rect width="144.714" height="31" fill="white"/>
</clipPath>
</defs>
</svg>
