<svg width="21" height="24" viewBox="0 0 21 24" fill="none" xmlns="http://www.w3.org/2000/svg">
<path d="M20.4844 23.2969C20.4844 19.7817 17.5307 16.9219 13.9001 16.9219H13.1685V16.1317C14.8922 15.1173 16.0949 13.1955 16.0949 11.0184V5.62726C16.0949 2.78438 14.6389 1.52967 12.7425 1.41525C11.7591 0.544407 10.507 0.0449063 9.19163 0.00342188C9.12647 0.00135938 9.06268 0.000234375 9.00001 0C8.99411 0 8.98815 0 8.9822 0C5.78025 0 3.52414 3.06615 4.27143 6.01768C4.32274 6.22018 4.36439 6.37553 4.38951 6.46717V11.2968C4.38951 13.4041 5.57882 15.2028 7.31585 16.1714V16.9219H6.58426C2.9537 16.9219 0 19.7817 0 23.2969V24H20.4844V23.2969ZM8.98235 1.40621H8.99445C9.04317 1.40639 9.09287 1.40724 9.14359 1.40888C10.1637 1.44108 11.1348 1.85227 11.8784 2.56683L12.134 2.81246H12.4369C12.9733 2.81246 14.5924 2.81283 14.6308 5.5285C13.905 5.26796 13.2154 4.72056 12.9542 4.47151L12.5816 4.11498L12.1109 4.33927C12.0842 4.35198 9.52085 5.55245 5.68797 5.66359C5.17582 3.58112 6.75955 1.40621 8.98235 1.40621ZM5.85268 11.2968V7.0652C9.02361 6.95697 11.3521 6.17303 12.2999 5.79643C12.7786 6.18142 13.6442 6.77786 14.6317 6.99512V11.0184C14.6317 13.2071 13.0312 15.0978 10.9738 15.4542C10.9738 15.4542 10.5385 15.5049 10.2526 15.5056C9.96669 15.5062 9.5106 15.4578 9.5106 15.4578C7.48255 15.1338 5.85268 13.4341 5.85268 11.2968ZM11.7054 16.7381V18.3281C11.7054 19.1035 11.049 19.7343 10.2422 19.7343C9.4354 19.7343 8.77902 19.1035 8.77902 18.3281C8.77902 17.7358 8.77902 17.3272 8.77902 16.7463C9.25011 16.8621 9.73915 16.9219 10.2379 16.9219C10.731 16.9219 11.2138 16.8654 11.7054 16.7381ZM1.51428 22.5937C1.86735 20.1857 4.00645 18.3281 6.58426 18.3281H7.31585C7.31585 19.8789 8.6286 21.1406 10.2422 21.1406C11.8558 21.1406 13.1685 19.8789 13.1685 18.3281H13.9001C16.4779 18.3281 18.617 20.1857 18.9701 22.5937H1.51428Z" fill="#333333"/>
</svg>
