<svg width="17" height="18" viewBox="0 0 17 18" fill="none" xmlns="http://www.w3.org/2000/svg">
<g clip-path="url(#clip0)">
<path d="M7.48644 0.394775C3.35853 0.394775 0 3.7533 0 7.88122C0 12.0094 3.35853 15.3677 7.48644 15.3677C11.6146 15.3677 14.9729 12.0094 14.9729 7.88122C14.9729 3.7533 11.6146 0.394775 7.48644 0.394775ZM7.48644 13.9856C4.12054 13.9856 1.38211 11.2471 1.38211 7.88125C1.38211 4.51535 4.12054 1.77689 7.48644 1.77689C10.8523 1.77689 13.5908 4.51532 13.5908 7.88122C13.5908 11.2471 10.8523 13.9856 7.48644 13.9856Z" fill="#171717"/>
<path d="M16.796 16.2148L12.834 12.2528C12.564 11.9828 12.1268 11.9828 11.8568 12.2528C11.5868 12.5225 11.5868 12.9602 11.8568 13.2299L15.8189 17.192C15.9538 17.327 16.1305 17.3945 16.3075 17.3945C16.4841 17.3945 16.661 17.327 16.796 17.192C17.066 16.9223 17.066 16.4846 16.796 16.2148Z" fill="#171717"/>
</g>
<defs>
<clipPath id="clip0">
<rect width="17" height="17" fill="white" transform="translate(0 0.394775)"/>
</clipPath>
</defs>
</svg>
