<svg width="22" height="2" viewBox="0 0 22 2" fill="none" xmlns="http://www.w3.org/2000/svg">
<path fill-rule="evenodd" clip-rule="evenodd" d="M20.9386 0H1.06142C0.475212 0 0 0.447715 0 1C0 1.55229 0.475214 2 1.06142 2H20.9386C21.5248 2 22 1.55228 22 1C22 0.447715 21.5248 0 20.9386 0ZM0.160364 0.883321C0.220775 0.465322 0.601168 0.143207 1.06142 0.143207H20.9386C21.4408 0.143207 21.848 0.526806 21.848 1C21.848 1.0399 21.8451 1.07917 21.8395 1.11763C21.845 1.07947 21.8479 1.04052 21.8479 1.00095C21.8479 0.527753 21.4407 0.144154 20.9384 0.144154H1.06128C0.601378 0.144154 0.221212 0.465783 0.160364 0.883321Z" fill="#EB5757"/>
</svg>
